<svg xmlns="http://www.w3.org/2000/svg" width="50" height="60.002" viewBox="0 0 50 60.002"><g transform="translate(-42.675)"><g transform="translate(42.675)"><path d="M92.5,50.61l-4.293-7.155a21.254,21.254,0,0,1-3.03-10.935V26.251a17.523,17.523,0,0,0-12.5-16.763V5a5,5,0,0,0-10,0V9.488a17.523,17.523,0,0,0-12.5,16.763v6.268a21.267,21.267,0,0,1-3.028,10.933l-4.293,7.155a1.252,1.252,0,0,0,1.07,1.9h47.5A1.25,1.25,0,0,0,92.5,50.61Z" transform="translate(-42.675)" fill="#b4b4c6"/></g><g transform="translate(59.802 55.002)"><path d="M188.815,469.333a8.7,8.7,0,0,0,15.746,0Z" transform="translate(-188.815 -469.333)" fill="#b4b4c6"/></g></g></svg>