<?xml version="1.0" encoding="UTF-8"?>
<svg xmlns="http://www.w3.org/2000/svg" width="250pt" height="250pt" viewBox="0 0 250 250"
    version="1.1">
    <g id="surface985057">
        <path
            style=" stroke:none;fill-rule:nonzero;fill:rgb(50.980392%,50.196078%,100%);fill-opacity:1;"
            d="M 60 0 C 54.53125 0 50 4.53125 50 10 L 50 20 L 20 20 C 14.199219 20 10 24.199219 10 30 L 10 65 L 240 65 L 240 30 C 240 24.199219 235.800781 20 230 20 L 200 20 L 200 10 C 200 4.53125 195.46875 0 190 0 L 180 0 C 174.53125 0 170 4.53125 170 10 L 170 20 L 80 20 L 80 10 C 80 4.53125 75.46875 0 70 0 Z M 60 10 L 70 10 L 70 40 L 60 40 Z M 180 10 L 190 10 L 190 40 L 180 40 Z M 10 75 L 10 230 C 10 235.800781 14.199219 240 20 240 L 230 240 C 235.800781 240 240 235.800781 240 230 L 240 75 Z M 60 105 L 85 105 L 85 130 L 60 130 Z M 95 105 L 120 105 L 120 130 L 95 130 Z M 130 105 L 155 105 L 155 130 L 130 130 Z M 165 105 L 190 105 L 190 130 L 165 130 Z M 60 140 L 85 140 L 85 165 L 60 165 Z M 95 140 L 120 140 L 120 165 L 95 165 Z M 130 140 L 155 140 L 155 165 L 130 165 Z M 165 140 L 190 140 L 190 165 L 165 165 Z M 60 175 L 85 175 L 85 200 L 60 200 Z M 95 175 L 120 175 L 120 200 L 95 200 Z M 130 175 L 155 175 L 155 200 L 130 200 Z M 165 175 L 190 175 L 190 200 L 165 200 Z M 165 175 " />
    </g>
</svg>
