<svg xmlns="http://www.w3.org/2000/svg" width="50" height="50" viewBox="0 0 50 50">
    <g transform="translate(436.244 -212)">
        <g transform="translate(-436.244 212)" fill="#e8e7ff" stroke="#8280ff" stroke-width="3">
            <circle cx="25" cy="25" r="25" stroke="none" />
            <circle cx="25" cy="25" r="23.5" fill="none" />
        </g>
        <g transform="translate(-427 226.101)">
            <path
                d="M104.048,119.8a1.426,1.426,0,0,0-1.046.544l-15.662,18.5-5.011-5.917a1.374,1.374,0,0,0-1.482-.494,1.683,1.683,0,0,0-1.089,1.286,2.02,2.02,0,0,0,.419,1.749l6.086,7.187a1.363,1.363,0,0,0,2.152,0l16.738-19.765a2.038,2.038,0,0,0,.341-1.989A1.531,1.531,0,0,0,104.048,119.8Zm0,0"
                transform="translate(-77.397 -120.336)" fill="#8280ff" />
        </g>
    </g>
</svg>