<svg width="20" height="20" viewBox="0 0 20 20" fill="none" xmlns="http://www.w3.org/2000/svg">
<path d="M7.09521 16.6663H3.76188C3.31985 16.6663 2.89593 16.4907 2.58337 16.1782C2.27081 15.8656 2.09521 15.4417 2.09521 14.9997V4.99967C2.09521 4.55765 2.27081 4.13372 2.58337 3.82116C2.89593 3.5086 3.31985 3.33301 3.76188 3.33301H7.09521V4.99967H3.76188V14.9997H7.09521V16.6663Z" fill="#6A707E" fill-opacity="0.5"/>
<path d="M11.5352 15.6067L12.7186 14.4333L9.45189 11.1392H17.0719C17.2929 11.1392 17.5049 11.0514 17.6612 10.8951C17.8174 10.7388 17.9052 10.5268 17.9052 10.3058C17.9052 10.0848 17.8174 9.87286 17.6612 9.71658C17.5049 9.5603 17.2929 9.4725 17.0719 9.4725H9.43689L12.7536 6.18333L11.5802 5L6.25439 10.2808L11.5352 15.6067Z" fill="#6A707E" fill-opacity="0.5"/>
</svg>
