<svg width="201" height="200" viewBox="0 0 201 200" fill="none" xmlns="http://www.w3.org/2000/svg">
<path d="M189.291 80.0142C193.889 100.559 191.262 122.061 181.853 140.894C172.444 159.727 156.828 174.74 137.639 183.4C118.45 192.06 96.8609 193.838 76.5133 188.434C56.1658 183.03 38.3042 170.775 25.9405 153.735C13.5768 136.695 7.46745 115.912 8.64268 94.8922C9.8179 73.8721 18.2058 53.9003 32.3919 38.3445C46.578 22.7888 65.6944 12.6009 86.5176 9.49876C107.341 6.39663 128.597 10.5701 146.701 21.3154" stroke="black" stroke-width="17" stroke-linecap="round" stroke-linejoin="round"/>
<path fill-rule="evenodd" clip-rule="evenodd" d="M78.6806 146.081C82.3483 149.952 88.295 149.952 91.9627 146.081L198.22 33.9232C201.888 30.0518 201.888 23.775 198.22 19.9036C194.552 16.0321 188.605 16.0321 184.938 19.9036L78.6806 132.061C75.0128 135.932 75.0128 142.209 78.6806 146.081Z" fill="#0080FF"/>
<path fill-rule="evenodd" clip-rule="evenodd" d="M36.7508 88.6583C40.4186 84.7869 46.3652 84.7869 50.033 88.6583L89.8794 130.717C93.5471 134.589 93.5471 140.866 89.8794 144.737C86.2116 148.608 80.265 148.608 76.5972 144.737L36.7508 102.678C33.0831 98.8066 33.0831 92.5297 36.7508 88.6583Z" fill="#0080FF"/>
</svg>
