<svg width="215" height="215" viewBox="0 0 215 215" fill="none" xmlns="http://www.w3.org/2000/svg">
<g filter="url(#filter0_d)">
<path d="M196.291 80.0142C200.889 100.559 198.262 122.061 188.853 140.894C179.444 159.727 163.828 174.74 144.639 183.4C125.45 192.06 103.861 193.838 83.5133 188.434C63.1658 183.03 45.3042 170.775 32.9405 153.735C20.5768 136.695 14.4674 115.912 15.6427 94.8922C16.8179 73.8721 25.2058 53.9003 39.3919 38.3445C53.578 22.7888 72.6944 12.6009 93.5176 9.49876C114.341 6.39663 135.597 10.5701 153.701 21.3154" stroke="black" stroke-width="17" stroke-linecap="round" stroke-linejoin="round"/>
<path fill-rule="evenodd" clip-rule="evenodd" d="M85.6806 146.081C89.3483 149.952 95.295 149.952 98.9627 146.081L205.22 33.9232C208.888 30.0518 208.888 23.775 205.22 19.9036C201.552 16.0321 195.605 16.0321 191.938 19.9036L85.6806 132.061C82.0128 135.932 82.0128 142.209 85.6806 146.081Z" fill="#0080FF"/>
<path fill-rule="evenodd" clip-rule="evenodd" d="M43.7508 88.6583C47.4186 84.7869 53.3652 84.7869 57.033 88.6583L96.8794 130.717C100.547 134.589 100.547 140.866 96.8794 144.737C93.2116 148.608 87.265 148.608 83.5972 144.737L43.7508 102.678C40.0831 98.8066 40.0831 92.5297 43.7508 88.6583Z" fill="#0080FF"/>
</g>
<defs>
<filter id="filter0_d" x="-7.62939e-05" y="-0.000183105" width="214.971" height="215" filterUnits="userSpaceOnUse" color-interpolation-filters="sRGB">
<feFlood flood-opacity="0" result="BackgroundImageFix"/>
<feColorMatrix in="SourceAlpha" type="matrix" values="0 0 0 0 0 0 0 0 0 0 0 0 0 0 0 0 0 0 127 0"/>
<feOffset dy="8"/>
<feGaussianBlur stdDeviation="3.5"/>
<feColorMatrix type="matrix" values="0 0 0 0 0 0 0 0 0 0 0 0 0 0 0 0 0 0 0.25 0"/>
<feBlend mode="normal" in2="BackgroundImageFix" result="effect1_dropShadow"/>
<feBlend mode="normal" in="SourceGraphic" in2="effect1_dropShadow" result="shape"/>
</filter>
</defs>
</svg>
